<svg width="512" height="512" viewBox="0 0 512 512" fill="none" xmlns="http://www.w3.org/2000/svg">
<g clip-path="url(#clip0)">
<path d="M140.579 19.6798L140.58 19.6816L246.899 187H5.05502C6.60418 116.673 40.7592 53.9407 93.9178 11.5089C108.297 0.0399754 130.806 4.28578 140.579 19.6798ZM384 229H389V224V160C389 127.461 415.461 101 448 101H496C502.039 101 507 105.961 507 112V144C507 150.039 502.039 155 496 155H448H443V160V224C443 273.009 420.737 317.528 384.316 351.02L377.541 357.25L386.454 359.542C418.937 367.898 443 397.075 443 432C443 473.439 409.439 507 368 507C326.561 507 293 473.439 293 432C293 423.755 294.572 416.001 297.137 408.399L300.144 399.49L291.077 401.978C269.996 407.763 247.341 411 224 411C200.662 411 178.105 407.764 156.917 401.977L147.982 399.536L150.845 408.345C153.341 416.026 155 423.785 155 432C155 473.439 121.439 507 80 507C38.5614 507 5 473.439 5 432C5 397.075 29.0635 367.898 61.5456 359.542L70.4593 357.25L63.6844 351.02C28.5056 318.67 6.53554 276.033 5.07741 229H384ZM43 432C43 452.361 59.6386 469 80 469C100.361 469 117 452.361 117 432C117 411.639 100.361 395 80 395C59.6386 395 43 411.639 43 432ZM368 469C388.361 469 405 452.361 405 432C405 411.639 388.361 395 368 395C347.639 395 331 411.639 331 432C331 452.361 347.639 469 368 469Z" fill="#FF877A" stroke="black" stroke-width="10"/>
</g>
<defs>
<clipPath id="clip0">
<rect width="512" height="512" fill="white"/>
</clipPath>
</defs>
</svg>
