<svg width="512" height="513" viewBox="0 0 512 513" fill="none" xmlns="http://www.w3.org/2000/svg">
<path d="M140.579 19.6945L140.58 19.6963L246.899 187.015H5.05502C6.60418 116.688 40.7592 53.9554 93.9178 11.5236C108.297 0.0546848 130.806 4.30049 140.579 19.6945ZM384 229.015H389V224.015V160.015C389 127.476 415.461 101.015 448 101.015H496C502.039 101.015 507 105.976 507 112.015V144.015C507 150.053 502.039 155.015 496 155.015H448H443V160.015V224.015C443 273.023 420.737 317.542 384.316 351.034L377.541 357.264L386.454 359.557C418.937 367.912 443 397.09 443 432.015C443 473.453 409.439 507.015 368 507.015C326.561 507.015 293 473.453 293 432.015C293 423.77 294.572 416.016 297.137 408.414L300.144 399.505L291.077 401.993C269.996 407.778 247.341 411.015 224 411.015C200.662 411.015 178.105 407.779 156.917 401.991L147.982 399.551L150.845 408.36C153.341 416.041 155 423.8 155 432.015C155 473.453 121.439 507.015 80 507.015C38.5614 507.015 5 473.453 5 432.015C5 397.09 29.0635 367.912 61.5456 359.557L70.4593 357.264L63.6844 351.034C28.5056 318.685 6.53554 276.048 5.07741 229.015H384ZM43 432.015C43 452.376 59.6386 469.015 80 469.015C100.361 469.015 117 452.376 117 432.015C117 411.653 100.361 395.015 80 395.015C59.6386 395.015 43 411.653 43 432.015ZM368 469.015C388.361 469.015 405 452.376 405 432.015C405 411.653 388.361 395.015 368 395.015C347.639 395.015 331 411.653 331 432.015C331 452.376 347.639 469.015 368 469.015Z" fill="#C90029" stroke="#002C4D" stroke-width="10"/>
</svg>
